<svg id="wave" style="transform:rotate(0deg); transition: 0.3s" viewBox="0 0 1440 490" version="1.1" xmlns="http://www.w3.org/2000/svg"><defs><linearGradient id="sw-gradient-0" x1="0" x2="0" y1="1" y2="0"><stop stop-color="rgba(154, 197, 139, 1)" offset="0%"></stop><stop stop-color="rgba(154, 197, 139, 1)" offset="100%"></stop></linearGradient></defs>
<path style="transform:translate(0, 0px); opacity:1" fill="url(#sw-gradient-0)" d="M0,392L60,343C120,294,240,196,360,163.3C480,131,600,163,720,204.2C840,245,960,294,1080,285.8C1200,278,1320,212,1440,220.5C1560,229,1680,310,1800,351.2C1920,392,2040,392,2160,400.2C2280,408,2400,425,2520,383.8C2640,343,2760,245,2880,179.7C3000,114,3120,82,3240,89.8C3360,98,3480,147,3600,179.7C3720,212,3840,229,3960,261.3C4080,294,4200,343,4320,302.2C4440,261,4560,131,4680,122.5C4800,114,4920,229,5040,261.3C5160,294,5280,245,5400,253.2C5520,261,5640,327,5760,310.3C5880,294,6000,196,6120,196C6240,196,6360,294,6480,334.8C6600,376,6720,359,6840,318.5C6960,278,7080,212,7200,204.2C7320,196,7440,245,7560,294C7680,343,7800,392,7920,383.8C8040,376,8160,310,8280,261.3C8400,212,8520,180,8580,163.3L8640,147L8640,490L8580,490C8520,490,8400,490,8280,490C8160,490,8040,490,7920,490C7800,490,7680,490,7560,490C7440,490,7320,490,7200,490C7080,490,6960,490,6840,490C6720,490,6600,490,6480,490C6360,490,6240,490,6120,490C6000,490,5880,490,5760,490C5640,490,5520,490,5400,490C5280,490,5160,490,5040,490C4920,490,4800,490,4680,490C4560,490,4440,490,4320,490C4200,490,4080,490,3960,490C3840,490,3720,490,3600,490C3480,490,3360,490,3240,490C3120,490,3000,490,2880,490C2760,490,2640,490,2520,490C2400,490,2280,490,2160,490C2040,490,1920,490,1800,490C1680,490,1560,490,1440,490C1320,490,1200,490,1080,490C960,490,840,490,720,490C600,490,480,490,360,490C240,490,120,490,60,490L0,490Z"></path>
</svg>